<?xml version="1.0" standalone="no"?>
<!DOCTYPE svg PUBLIC "-//W3C//DTD SVG 20010904//EN"
 "http://www.w3.org/TR/2001/REC-SVG-20010904/DTD/svg10.dtd">
<svg version="1.0" xmlns="http://www.w3.org/2000/svg"
 width="16.000000pt" height="16.000000pt" viewBox="0 0 16.000000 16.000000"
 preserveAspectRatio="xMidYMid meet">
<metadata>
Created by potrace 1.11, written by Peter Selinger 2001-2013
</metadata>
<g transform="translate(0.000000,16.000000) scale(0.003200,-0.003200)"
fill="#000000" stroke="none">
<path d="M1122 4992 l-723 -2 6 -823 c4 -452 8 -1128 10 -1502 1 -374 7 -736
12 -805 18 -214 92 -470 197 -680 76 -152 122 -221 142 -213 13 5 15 2 10 -14
-18 -57 286 -397 477 -531 310 -219 558 -322 929 -387 143 -25 167 -27 378
-22 204 4 239 8 375 36 176 37 430 121 430 142 0 9 11 14 30 15 27 1 128 52
238 121 23 14 92 63 153 109 154 115 394 369 394 417 0 10 6 17 13 17 18 0
130 182 193 315 59 122 126 315 154 445 50 227 50 216 50 1839 l0 1518 -227 6
c-211 6 -1495 6 -3241 -1z m3362 -101 c3 -5 7 -353 8 -775 3 -671 1 -768 -12
-776 -9 -6 -770 -10 -1991 -10 l-1977 0 -6 513 c-4 281 -6 631 -4 777 l3 265
625 5 c1139 9 3349 10 3354 1z m-699 -2057 c-11 -8 -13 -14 -5 -19 6 -4 17 -2
25 5 9 7 15 8 20 0 10 -16 65 -41 76 -35 15 10 -9 35 -34 35 -27 0 -16 10 18
16 20 3 34 -2 52 -21 14 -14 29 -25 32 -25 4 0 11 19 17 43 12 54 28 50 32 -8
2 -25 7 -45 13 -45 5 0 9 7 9 15 0 8 5 15 10 15 6 0 10 -9 10 -20 0 -28 -50
-48 -62 -25 -12 20 -42 20 -34 0 6 -17 -9 -21 -19 -5 -3 6 -12 10 -20 10 -11
0 -12 -7 -4 -32 12 -45 2 -48 -31 -10 -20 24 -29 29 -33 19 -3 -8 -1 -20 4
-28 5 -8 9 -25 9 -38 0 -18 -4 -22 -20 -18 -24 6 -26 -5 -5 -23 9 -7 13 -15
10 -18 -3 -3 -19 7 -35 23 l-30 29 6 -47 c8 -54 -9 -65 -28 -19 l-11 27 -10
-32 c-12 -41 -21 -41 -37 -3 -7 17 -17 33 -21 36 -5 3 -9 -56 -9 -131 0 -88 4
-134 10 -130 6 4 10 -6 10 -22 0 -22 2 -25 10 -13 5 8 10 25 10 37 0 15 5 21
14 17 15 -6 36 42 36 84 0 29 15 20 23 -13 4 -17 5 -16 6 5 1 14 6 32 11 40 8
12 10 8 11 -15 0 -16 4 -41 8 -55 l7 -25 15 29 c8 16 18 27 22 25 5 -2 15 7
24 21 8 14 12 17 9 7 -3 -10 -6 -23 -6 -28 0 -5 -6 -9 -14 -9 -8 0 -18 -9 -21
-21 -10 -29 3 -37 13 -9 l9 24 7 -28 c4 -15 4 -37 0 -48 -4 -14 -2 -18 5 -14
6 4 11 13 11 19 1 7 7 26 16 42 l14 30 -5 -30 c-3 -16 -8 -38 -12 -49 -3 -11
-1 -16 5 -12 5 3 20 39 33 81 12 41 26 75 31 75 4 0 4 -7 1 -17 -4 -11 -3 -14
5 -9 7 4 12 2 12 -4 0 -7 -7 -10 -15 -6 -9 3 -15 0 -15 -9 0 -8 6 -15 14 -15
10 0 12 -7 8 -22 -3 -14 -1 -19 6 -14 6 3 0 -22 -14 -56 -29 -73 -29 -74 -7
-57 15 13 15 12 4 -9 -14 -27 -5 -46 17 -37 10 4 5 -6 -11 -23 -16 -17 -24
-31 -17 -34 7 -2 3 -25 -14 -68 -15 -39 -25 -56 -26 -42 0 34 -18 18 -32 -30
l-12 -41 -8 31 c-11 42 -24 40 -35 -5 -9 -38 -33 -58 -33 -26 0 15 -2 15 -9 4
-7 -11 -10 -6 -13 20 l-4 34 -13 -48 c-19 -66 -24 -52 -11 26 7 36 10 75 8 88
l-5 24 -11 -25 c-10 -24 -11 -24 -11 -2 -1 12 -5 22 -10 22 -11 0 -21 -61 -21
-137 0 -91 -18 -85 -37 12 l-7 40 -6 -35 c-7 -35 -7 -35 -18 -10 -10 22 -11
19 -12 -30 l-2 -55 -12 51 c-7 33 -15 49 -23 47 -7 -3 -13 0 -13 6 0 6 5 11
10 11 6 0 10 7 10 16 0 10 -6 14 -14 11 -9 -4 -17 10 -26 49 -7 29 -17 51 -21
49 -4 -3 -3 -20 2 -38 5 -17 9 -39 9 -47 0 -13 -1 -13 -11 0 -10 15 -8 -18 6
-90 3 -14 -2 -6 -9 17 -27 80 -76 143 -55 71 11 -41 4 -48 -9 -8 -6 17 -15 29
-19 28 -19 -7 -55 46 -117 172 -37 74 -58 124 -47 110 19 -23 21 -23 21 -5 0
11 -9 35 -20 53 -22 36 -24 42 -12 42 5 0 29 -31 53 -70 24 -38 47 -70 51 -70
4 0 1 21 -7 48 -18 57 -18 55 -4 46 8 -4 9 1 4 17 -15 48 11 3 29 -51 37 -110
50 -82 16 35 -22 79 -26 118 -5 65 l13 -35 2 35 c1 33 2 31 20 -24 18 -55 49
-108 37 -61 -3 11 -15 64 -27 117 -23 102 -40 134 -40 74 0 -19 -4 -37 -9 -41
-13 -7 -25 33 -22 71 3 35 -15 55 -25 29 -6 -14 -8 -14 -20 2 -12 17 -14 17
-30 -5 -12 -17 -19 -21 -27 -13 -8 8 -8 14 1 23 18 18 14 30 -8 23 -15 -5 -18
-3 -14 10 4 9 19 19 35 22 20 4 29 12 29 24 0 11 5 19 10 19 6 0 10 8 10 18
-1 16 -1 16 -14 -1 -8 -10 -20 -15 -30 -11 -33 13 -9 29 42 29 60 -1 67 12 25
44 -18 13 -23 20 -13 21 17 0 52 -21 88 -53 l22 -21 -26 -27 c-16 -17 -22 -29
-15 -33 6 -4 11 -18 11 -32 0 -19 5 -24 24 -24 34 0 68 -56 60 -99 -7 -36 -19
-32 -38 12 -20 44 -20 12 0 -74 15 -65 27 -85 36 -57 3 7 13 -30 23 -82 10
-52 22 -99 27 -105 6 -6 8 -1 4 15 -3 14 -8 72 -11 129 -4 57 -9 110 -12 118
-3 7 -1 13 5 13 5 0 13 -26 17 -57 13 -113 24 -101 24 30 1 70 -3 127 -7 127
-5 0 -9 -14 -10 -31 -1 -38 -10 -49 -23 -29 -19 31 -21 61 -5 79 9 10 16 28
15 42 0 22 -1 22 -16 -8 -20 -40 -33 -42 -33 -7 0 26 -1 26 -25 10 -31 -20
-32 -10 -2 22 l22 24 -35 -6 -35 -7 28 22 27 21 -20 33 c-39 63 -21 72 52 23
26 -18 50 -41 54 -52 11 -33 24 -2 14 34 -5 18 -8 35 -6 38 2 2 20 -13 40 -32
19 -20 44 -36 56 -36 24 0 25 4 4 35 -18 28 -6 67 13 43 6 -7 13 -24 15 -37 4
-31 28 -40 28 -11 0 11 8 33 18 48 l17 26 3 -34 c3 -23 -2 -38 -13 -46z
m-2495 9 c0 -13 -6 -23 -14 -23 -14 0 -26 29 -26 64 0 18 1 18 20 1 11 -10 20
-29 20 -42z m70 52 c0 -3 -11 -23 -25 -45 -29 -46 -14 -69 18 -26 19 26 94 72
104 63 2 -3 -15 -23 -39 -46 -37 -35 -40 -41 -22 -41 12 0 27 7 34 15 18 22
29 18 23 -7 -5 -22 -4 -22 16 2 11 14 21 28 21 32 0 9 70 51 75 46 3 -3 -8
-22 -24 -43 -29 -39 -31 -65 -4 -65 8 0 11 5 8 11 -4 6 1 17 11 25 26 20 117
74 126 74 18 0 -7 -31 -45 -56 -34 -23 -38 -29 -23 -32 11 -2 43 4 71 14 50
17 85 15 85 -5 0 -5 -13 -14 -30 -20 -44 -15 -37 -18 25 -13 37 3 55 1 55 -7
0 -6 5 -11 10 -11 6 0 10 7 10 15 0 17 55 22 65 6 9 -15 -63 -34 -103 -26
l-37 7 29 -31 c26 -27 27 -31 10 -31 -10 1 -30 7 -44 15 -51 29 -56 5 -7 -36
25 -22 28 -28 14 -29 -30 0 -13 -25 19 -28 30 -4 44 -17 43 -42 0 -10 -2 -11
-6 -2 -8 21 -22 13 -25 -15 -4 -40 -20 -32 -40 18 -10 29 -18 39 -22 29 -3 -8
-10 -28 -16 -43 -14 -40 -31 -23 -29 29 3 50 -15 80 -24 42 -4 -13 -15 -29
-27 -36 -18 -11 -20 -10 -20 18 0 16 -4 30 -10 30 -5 0 -10 -7 -10 -16 0 -13
-3 -14 -14 -5 -12 10 -19 -3 -44 -81 -17 -51 -32 -106 -35 -123 -3 -16 -10
-43 -16 -58 -13 -34 -15 -55 -2 -41 4 5 19 42 31 82 13 39 28 72 33 72 5 0 7
-6 4 -12 -34 -91 -79 -261 -97 -370 -13 -76 -27 -138 -31 -138 -5 0 -9 33 -11
73 l-3 72 -9 -72 c-5 -40 -13 -73 -17 -73 -5 0 -9 28 -10 63 0 34 -4 85 -9
112 -7 49 -7 48 -9 -27 -1 -91 -20 -118 -22 -31 -1 32 -5 72 -9 88 -7 27 -8
25 -11 -20 -2 -27 -2 -79 0 -115 4 -95 -5 -70 -18 46 -13 123 -34 187 -26 79
3 -38 8 -97 11 -130 8 -75 -2 -68 -17 11 -14 76 -39 167 -46 161 -2 -3 3 -43
11 -89 23 -122 18 -138 -8 -30 -22 86 -36 123 -36 92 0 -7 7 -51 16 -97 8 -46
13 -89 10 -96 -2 -7 -5 -5 -5 4 -2 34 -69 225 -76 217 -3 -3 9 -51 25 -108 17
-56 30 -110 28 -119 -2 -9 -18 36 -37 99 -19 63 -51 165 -72 225 -53 154 -53
155 -25 103 26 -47 46 -68 46 -48 0 6 -13 40 -30 77 -16 36 -30 71 -30 77 1
19 38 -56 60 -121 13 -38 27 -63 36 -63 19 0 17 22 -12 135 -4 15 -1 14 10 -5
20 -33 20 -9 2 56 -8 27 -20 68 -26 92 -7 28 -16 42 -27 42 -13 0 -14 -3 -5
-12 19 -19 14 -30 -7 -18 -28 15 -31 13 -31 -20 0 -16 -4 -30 -10 -30 -5 0
-10 14 -10 30 0 20 -5 30 -15 30 -9 0 -15 -9 -15 -25 0 -16 -6 -25 -16 -25
-11 0 -14 6 -8 23 4 12 12 25 18 29 8 5 7 11 -1 19 -10 10 -17 7 -33 -12 -20
-23 -21 -23 -10 -1 17 34 -3 26 -25 -10 l-20 -33 -3 33 c-3 28 -6 31 -18 21
-18 -15 -18 -40 1 -65 15 -19 15 -19 34 4 25 29 31 28 22 -5 -5 -16 -13 -27
-19 -26 -5 1 -18 -17 -27 -40 l-18 -42 -9 33 c-11 39 -19 40 -40 5 -9 -16 -28
-39 -42 -52 -24 -23 -26 -23 -26 -5 0 30 28 64 47 57 10 -4 14 -2 11 7 -7 21
-39 21 -69 0 -14 -11 -39 -24 -54 -30 -45 -17 -25 12 28 40 51 27 62 46 22 36
-26 -7 -85 17 -85 34 0 6 25 10 56 10 41 0 60 5 69 17 12 16 40 10 30 -7 -9
-14 19 -30 35 -19 12 8 12 12 2 16 -10 4 -10 8 -1 19 16 19 8 25 -38 27 -21 1
-43 8 -50 17 -16 21 0 28 55 23 l47 -4 -27 25 c-16 14 -28 30 -28 35 0 14 63
-8 73 -26 4 -7 16 -13 26 -13 16 0 17 5 11 40 -5 29 -4 40 5 40 7 0 16 -11 19
-24 3 -13 13 -26 21 -30 12 -4 15 3 15 34 0 69 32 59 34 -11 1 -17 7 -29 15
-29 8 0 11 -6 7 -15 -14 -39 28 -61 55 -29 11 14 13 14 21 0 13 -24 33 -19 46
9 15 32 15 35 2 35 -5 0 -10 -7 -10 -15 0 -8 -4 -15 -10 -15 -5 0 -10 12 -10
28 l-1 27 -24 -27 c-44 -50 -61 -30 -22 25 14 21 29 31 40 29 9 -2 17 1 17 7
0 6 -7 11 -15 11 -14 0 -13 3 1 25 17 25 54 35 54 13 0 -6 -11 -26 -26 -45
-31 -41 -20 -42 29 -2 36 29 40 31 79 21 35 -9 44 -8 55 6 7 9 13 26 13 38 0
11 5 25 12 32 12 12 28 16 28 7z m-290 -74 c0 -31 -5 -53 -15 -61 -24 -20 -28
-6 -15 54 14 69 30 73 30 7z m2184 -42 c28 -8 36 -13 26 -19 -9 -5 -20 -4 -27
2 -18 15 -29 2 -14 -16 8 -10 9 -16 1 -21 -18 -11 -11 -35 10 -35 13 0 20 -7
20 -19 0 -27 23 -42 57 -35 40 8 56 -12 45 -61 -9 -46 -28 -56 -34 -20 -3 14
-1 25 3 25 5 0 9 8 9 17 0 11 -18 -3 -51 -38 l-51 -54 6 48 c4 26 5 47 3 47
-11 0 -47 -73 -47 -94 0 -12 -11 -33 -25 -46 -24 -23 -25 -23 -25 -3 0 11 5
34 11 52 15 42 6 48 -27 22 -25 -20 -27 -20 -40 -4 -9 13 -9 22 -2 31 19 23 1
24 -41 3 -49 -26 -51 -26 -51 -3 0 13 12 22 40 31 22 6 40 18 40 26 0 11 -7
12 -32 4 -85 -24 -91 0 -8 30 73 27 102 18 97 -29 -2 -17 -7 -33 -10 -37 -10
-10 -8 -23 3 -23 6 0 10 7 10 16 0 11 5 14 16 10 19 -7 70 18 83 43 17 30 1
32 -36 4 -38 -29 -53 -25 -29 9 22 31 21 35 -16 43 -57 11 -68 16 -63 26 4 5
28 9 56 9 58 0 64 14 12 31 -54 17 -56 19 -36 35 18 15 42 13 117 -7z m886 4
c0 -4 -12 -19 -26 -34 -23 -24 -24 -29 -12 -48 16 -26 28 -27 28 -1 0 18 62
60 90 60 21 0 9 -16 -25 -34 -19 -11 -35 -22 -35 -26 0 -4 25 -11 56 -15 35
-4 54 -11 51 -18 -6 -20 -67 -20 -88 -1 -23 21 -25 7 -2 -18 22 -25 8 -36 -17
-13 -24 22 -39 12 -22 -15 7 -11 8 -20 3 -20 -13 0 -26 21 -26 42 0 10 -4 17
-10 17 -5 -1 -9 -5 -7 -10 1 -5 -3 -9 -9 -9 -7 0 -9 -10 -5 -25 8 -32 -16 -34
-38 -3 l-16 22 0 -26 c0 -14 -3 -33 -6 -42 -11 -28 -24 -17 -24 19 0 37 -10
44 -30 20 -18 -21 -40 -19 -40 5 0 13 -7 20 -19 20 -14 0 -18 5 -14 20 3 12
14 20 27 20 27 0 50 15 42 28 -7 12 39 26 77 23 18 -2 27 2 27 12 0 9 12 25
28 36 28 21 42 26 42 14z m-2155 -63 c10 -16 -45 -33 -62 -19 -10 9 -17 9 -25
1 -8 -8 -4 -14 16 -22 15 -5 35 -10 44 -10 25 -1 95 -34 110 -53 12 -14 10
-15 -25 -10 -21 3 -50 12 -65 19 -37 19 -44 17 -23 -6 10 -11 26 -20 35 -20
19 0 77 -57 67 -66 -3 -4 -24 8 -47 26 -23 18 -43 30 -46 27 -3 -2 2 -23 11
-45 9 -22 15 -51 13 -64 -2 -18 -8 -11 -27 35 -14 31 -28 57 -32 57 -3 0 -4
-20 -1 -45 6 -55 -14 -88 -35 -59 -7 10 -13 37 -13 61 0 37 4 45 25 53 14 5
25 15 25 22 0 20 -52 68 -74 68 -17 0 -15 -5 14 -29 43 -35 35 -49 -15 -26
-46 23 -63 51 -34 58 17 5 20 11 15 31 l-6 26 74 0 c41 0 78 -5 81 -10z m2308
-107 c79 -21 99 -38 35 -29 -27 3 -48 3 -48 0 0 -4 19 -23 43 -44 49 -44 45
-62 -7 -31 -22 14 -33 27 -29 37 3 7 0 14 -6 14 -6 0 -11 -5 -11 -11 0 -8 -5
-8 -15 1 -8 7 -15 8 -15 3 0 -14 30 -72 41 -78 5 -4 9 -13 9 -22 0 -26 -46 22
-71 74 -27 55 -43 46 -36 -21 6 -47 5 -49 -9 -31 -8 11 -12 30 -9 42 3 12 0
23 -6 25 -17 6 6 45 31 53 11 3 20 13 20 21 0 18 7 18 83 -3z m-2706 -17 c-3
-7 -1 -19 4 -25 5 -6 6 -9 3 -6 -4 3 -13 0 -20 -6 -11 -9 -12 -6 -3 20 6 17
13 31 16 31 3 0 3 -6 0 -14z m-488 -47 c16 -46 14 -48 -9 -11 -22 37 -24 42
-11 42 5 0 14 -14 20 -31z m-85 -59 c5 -17 4 -20 -2 -10 -5 8 -13 26 -16 40
-5 17 -4 20 2 10 5 -8 13 -26 16 -40z m645 -22 c-19 -61 -20 -105 -1 -58 31
79 43 103 48 98 3 -3 -16 -52 -41 -108 -25 -56 -44 -105 -41 -107 3 -3 23 30
44 73 22 44 55 93 73 109 l32 30 -24 -33 c-13 -19 -54 -93 -92 -165 -37 -73
-65 -124 -63 -114 3 9 2 17 -3 17 -5 0 -22 -37 -37 -82 l-29 -83 -5 55 c-5 54
-5 54 -13 20 -5 -19 -11 -30 -13 -24 -7 16 42 239 67 306 12 32 25 55 30 52 5
-3 9 0 9 7 0 7 2 10 5 7 3 -2 -4 -31 -15 -63 -24 -69 -23 -65 -6 -65 14 0 76
153 76 186 0 8 4 13 9 10 5 -3 0 -34 -10 -68z m2416 22 c-24 -52 -31 -45 -9 9
9 23 19 39 22 37 3 -3 -3 -24 -13 -46z m-3061 -110 c53 -102 136 -346 136
-399 0 -42 -16 -11 -39 79 -13 47 -38 123 -56 170 -18 47 -40 108 -50 135 -10
28 -21 55 -25 60 -3 6 -19 33 -34 60 -19 34 -21 42 -7 25 11 -14 45 -72 75
-130z m557 123 c-8 -15 -10 -15 -11 -2 0 17 10 32 18 25 2 -3 -1 -13 -7 -23z
m260 -1 c-5 -10 -18 -25 -28 -33 -12 -10 -11 -5 6 19 24 35 38 43 22 14z
m1257 -19 c-15 -19 -28 -16 -28 5 0 26 10 33 25 19 9 -8 10 -16 3 -24z m643
10 c0 -25 1 -26 9 -8 7 17 9 15 9 -11 1 -17 -6 -37 -14 -44 -13 -11 -15 -7
-15 23 0 19 -3 42 -6 51 -3 9 -1 16 5 16 6 0 11 -12 12 -27z m399 3 c0 -7 -41
-76 -45 -76 -2 0 4 18 13 40 9 22 20 40 25 40 4 0 7 -2 7 -4z m-859 -39 c12
-22 12 -22 -10 -3 -11 11 -21 23 -21 28 0 14 19 -1 31 -25z m-856 -459 l-7
-43 21 19 c11 11 21 24 21 31 0 12 41 35 61 35 6 0 1 -13 -11 -30 -27 -37 -15
-39 25 -2 31 28 60 38 69 24 2 -4 -9 -17 -25 -27 -36 -25 -38 -38 -3 -25 34
13 34 13 34 -10 0 -11 7 -20 16 -20 8 0 12 5 9 10 -9 15 12 38 56 61 45 23 49
23 49 6 0 -7 -13 -23 -30 -35 -34 -26 -39 -43 -10 -35 14 4 20 0 20 -10 0 -8
12 -25 28 -37 28 -22 25 -23 -37 -4 -21 6 -22 5 -12 -15 15 -27 7 -27 -31 0
-40 29 -47 16 -10 -21 33 -32 62 -37 106 -17 22 10 26 17 23 40 -2 15 0 30 5
33 4 3 8 14 8 25 0 14 -7 19 -30 19 -19 0 -29 5 -27 13 3 15 75 56 101 57 17
0 18 -2 4 -17 -35 -42 -34 -46 15 -41 54 6 80 -4 49 -21 -11 -6 -27 -11 -36
-11 -8 0 -17 -4 -20 -9 -3 -5 37 -9 89 -9 97 -1 120 -6 109 -24 -4 -6 -31 -8
-73 -4 -62 6 -64 5 -41 -8 19 -12 21 -15 8 -16 -21 0 -24 -20 -6 -38 21 -21
-1 -26 -42 -9 -27 10 -42 12 -46 5 -10 -16 20 -35 67 -42 50 -8 62 -1 55 30
-5 19 -3 24 14 24 11 0 23 7 26 15 7 16 49 20 103 9 46 -10 27 -24 -32 -24
-70 0 -50 -16 42 -33 41 -8 80 -22 89 -32 16 -16 15 -17 -30 -11 -28 4 -49 3
-53 -4 -3 -6 3 -10 17 -11 27 -1 91 -69 64 -69 -27 0 -96 51 -96 71 0 20 -45
59 -69 59 -11 -1 -7 -8 14 -25 28 -23 28 -25 8 -25 -12 0 -25 5 -28 10 -6 10
-45 14 -45 5 0 -3 15 -18 32 -34 46 -41 27 -50 -22 -11 l-41 33 6 -37 c9 -47
-6 -47 -41 2 -44 59 -47 60 -39 15 5 -33 4 -43 -7 -43 -22 0 -38 22 -38 52 0
36 -27 38 -36 3 -10 -42 -24 -28 -24 25 0 28 -4 50 -10 50 -5 0 -7 -6 -4 -13
7 -20 -24 -43 -38 -29 -20 20 -28 13 -26 -20 2 -24 -1 -33 -12 -33 -10 0 -16
12 -18 38 -2 20 -7 37 -12 37 -9 0 -23 -27 -24 -49 -1 -8 -7 -16 -15 -19 -10
-3 -13 3 -9 27 5 33 -15 45 -26 15 -8 -21 -20 -400 -13 -393 4 3 13 38 22 79
10 47 23 81 36 93 21 20 21 20 14 -2 -4 -15 -2 -21 8 -21 10 0 19 19 27 53 7
28 16 59 21 67 16 28 10 -14 -10 -79 -10 -34 -15 -61 -11 -61 9 0 19 25 51
125 12 39 24 64 27 57 2 -8 -4 -34 -13 -58 -17 -45 -13 -72 6 -44 7 11 8 7 3
-14 -10 -41 16 -30 31 14 8 23 14 30 19 21 5 -7 14 -10 22 -7 11 4 12 2 4 -14
-5 -10 -10 -28 -10 -39 0 -12 -5 -21 -11 -21 -6 0 -9 -6 -6 -12 2 -7 -5 -33
-15 -57 -38 -90 -7 -49 51 68 67 133 90 163 37 49 -126 -274 -151 -326 -154
-318 -2 5 2 18 8 30 11 21 11 21 -14 5 -14 -10 -26 -23 -26 -29 0 -28 -32
-116 -40 -111 -5 3 -11 -5 -14 -17 -2 -13 -2 29 1 92 3 71 12 140 24 179 21
71 23 81 10 81 -10 0 -35 -88 -61 -220 -16 -82 -19 -89 -20 -50 -1 25 -4 38
-7 30 -14 -42 -17 -41 -23 5 l-7 50 -1 -57 c-2 -57 -22 -84 -22 -30 0 20 -3
23 -10 12 -6 -10 -10 0 -13 35 -2 33 -4 17 -6 -45 -3 -94 -3 -94 -12 -41 -14
83 -22 76 -16 -14 3 -48 2 -72 -3 -60 -5 11 -9 34 -10 50 -1 17 -6 39 -11 50
-6 14 -8 -1 -4 -46 4 -55 3 -68 -11 -73 -24 -9 -24 -9 -24 29 0 43 -16 46 -25
4 -8 -37 -17 -29 -33 27 -15 52 -42 79 -43 43 0 -15 -6 -5 -15 26 -24 81 -66
188 -83 215 -9 14 -23 38 -31 53 -8 16 -38 53 -66 83 -29 30 -49 54 -45 54 14
0 95 -92 130 -147 18 -29 37 -53 42 -53 13 0 13 1 -26 86 -19 42 -32 81 -28
87 3 6 17 -14 30 -43 13 -29 26 -50 30 -47 3 4 12 2 20 -4 16 -14 16 -15 -2
45 -8 27 -13 51 -11 54 3 2 10 -14 17 -37 18 -60 30 -50 13 11 -18 71 -10 73
12 4 10 -31 21 -56 26 -56 9 0 0 48 -23 120 -10 30 -15 58 -12 64 8 13 21 -21
22 -57 1 -18 5 -27 14 -24 7 3 11 21 10 51 -1 52 6 58 25 19 15 -33 15 -46 2
-38 -6 4 -10 -6 -10 -24 0 -35 19 -53 21 -19 1 20 2 21 6 3 3 -11 9 -24 15
-30 14 -14 -1 103 -17 136 -7 15 -9 33 -4 40 9 15 2 32 -12 24 -5 -4 -6 8 -2
26 5 28 4 31 -13 26 -59 -18 -64 -19 -64 -8 0 6 5 11 10 11 6 0 10 9 10 20 0
19 -2 20 -27 7 -53 -27 -71 -29 -76 -10 -3 13 -8 8 -21 -21 -18 -40 -15 -56 6
-39 30 23 57 21 74 -6 17 -26 17 -26 -3 -8 -29 25 -38 21 -18 -9 20 -30 12
-43 -15 -26 -27 17 -37 15 -71 -9 -33 -23 -35 -20 -14 21 15 28 14 29 -11 26
-15 -2 -31 -10 -36 -19 -5 -10 -16 -17 -25 -17 -13 0 -13 3 -3 15 17 20 -9 21
-36 0 -36 -28 -48 -8 -16 28 16 19 16 19 -3 14 -44 -13 -135 -19 -135 -10 0
10 68 23 122 23 l29 0 -21 31 c-29 39 -20 47 25 20 20 -11 38 -21 41 -21 2 0
4 19 4 43 l1 42 18 -22 c25 -30 39 -29 47 2 3 14 13 25 20 25 10 0 13 -7 8
-25 -3 -14 -2 -25 4 -25 13 0 23 26 16 44 -6 17 12 56 26 56 6 0 10 -11 10
-25 0 -32 7 -31 42 2 15 15 28 22 28 15 0 -6 -4 -14 -10 -17 -11 -7 -14 -45
-3 -45 3 0 14 7 23 15 14 13 43 22 78 24 6 1 12 12 12 24 0 25 7 37 23 37 5 0
6 -18 2 -42z m1472 -10 c-3 -8 -6 -5 -6 6 -1 11 2 17 5 13 3 -3 4 -12 1 -19z
m73 -93 c0 -13 -7 -25 -17 -28 -10 -2 -25 -8 -34 -11 -13 -6 -18 2 -26 31
l-10 38 44 -4 c37 -3 43 -6 43 -26z m-327 -4 c23 -39 22 -41 -21 -41 -31 0
-41 5 -55 29 -23 39 -22 41 21 41 31 0 41 -5 55 -29z m96 3 c28 -36 26 -44 -8
-44 -30 0 -61 30 -61 57 0 23 48 14 69 -13z m115 1 c22 -33 21 -35 -18 -35
-25 0 -39 7 -50 22 -23 32 -20 38 18 38 25 0 38 -6 50 -25z m-2707 -7 c29 -27
29 -38 1 -38 -32 1 -62 26 -55 45 9 21 27 19 54 -7z m118 -3 l30 -24 -35 -1
c-37 0 -60 14 -60 37 0 21 32 15 65 -12z m125 0 l23 -25 -28 0 c-27 0 -65 24
-65 42 0 18 48 7 70 -17z m126 8 c20 -27 17 -33 -19 -33 -31 0 -64 29 -50 44
13 13 56 5 69 -11z m2010 -8 c9 -14 15 -28 12 -30 -7 -7 -98 25 -98 34 0 32
65 28 86 -4z m-1906 1 c0 -23 -17 -28 -34 -10 -21 21 -20 24 9 24 15 0 25 -6
25 -14z m-474 -236 c-9 -57 -14 -105 -12 -108 7 -6 36 101 52 187 l14 76 -5
-65 c-3 -36 -8 -85 -11 -110 -8 -54 6 -46 23 13 l11 42 1 -45 c0 -25 -8 -79
-19 -120 -23 -88 -26 -132 -5 -85 11 26 32 116 64 280 8 41 8 34 4 -42 -4 -66
-3 -93 6 -93 6 0 12 18 12 43 1 23 5 56 10 72 6 22 7 12 6 -37 -2 -38 0 -68 4
-68 9 0 19 53 20 114 1 44 2 47 9 21 4 -16 8 -54 9 -84 2 -86 15 -49 21 57 l5
97 11 -115 c10 -115 10 -115 19 -60 l8 55 11 -35 c10 -34 11 -34 16 30 l5 65
9 -70 c8 -68 34 -151 43 -141 8 8 -38 250 -50 265 -10 11 -9 13 3 9 14 -4 30
-59 59 -203 15 -72 12 5 -4 104 -9 52 -14 96 -11 98 2 2 7 -11 10 -29 19 -94
40 -174 48 -183 7 -7 8 2 5 25 -22 131 -19 194 3 83 7 -32 18 -65 26 -74 7 -8
40 -83 73 -165 32 -83 73 -172 90 -199 l31 -50 -57 -21 c-32 -12 -72 -25 -90
-28 -30 -7 -31 -6 -47 41 -8 26 -25 91 -37 143 -12 52 -25 102 -30 110 -18 32
-9 -27 26 -164 19 -77 35 -140 35 -141 0 -2 -11 -5 -25 -7 -21 -4 -25 -1 -25
18 0 33 -18 39 -22 7 -4 -35 -28 -43 -28 -9 0 35 -27 34 -33 -1 -2 -16 -5 8
-7 52 -4 113 -6 135 -12 141 -10 9 -20 -124 -13 -170 5 -31 4 -46 -4 -46 -6 0
-11 9 -11 20 0 28 -20 25 -21 -2 -1 -17 -2 -19 -6 -5 -5 21 -23 23 -23 2 0 -8
-4 -15 -10 -15 -8 0 -6 57 5 113 2 9 0 17 -5 17 -11 0 -20 -26 -20 -58 0 -47
-11 -72 -31 -72 -11 0 -19 7 -19 17 0 15 -1 15 -18 0 -10 -10 -31 -17 -46 -17
-24 0 -26 3 -20 23 12 39 24 91 24 112 0 30 -16 1 -35 -62 -14 -48 -18 -53
-43 -53 -37 0 -148 38 -162 55 -8 10 -3 25 20 61 59 93 123 280 162 474 19 97
22 33 4 -90z m2505 63 c0 -49 4 -110 8 -138 7 -47 8 -48 16 -21 4 16 5 78 2
137 -3 62 -2 109 3 109 5 0 11 -55 12 -122 2 -92 6 -122 17 -126 11 -4 13 18
9 122 -2 69 -1 126 3 126 3 0 9 -55 12 -122 4 -67 10 -125 15 -130 4 -4 6 52
6 125 l-2 132 15 -152 c9 -84 20 -150 24 -147 5 3 10 49 11 102 1 53 3 80 5
60 3 -29 9 -38 23 -38 17 0 19 6 15 48 l-5 47 14 -50 14 -50 2 90 c2 89 3 89
11 35 18 -119 113 -450 129 -450 5 0 2 21 -6 48 -24 78 -63 244 -68 297 -5 44
-3 41 17 -30 29 -101 76 -210 129 -300 22 -38 43 -73 45 -77 3 -6 -48 -38 -60
-38 -3 0 -12 19 -21 41 -21 52 -32 45 -15 -10 14 -47 7 -61 -19 -38 -18 16
-19 16 -18 -5 2 -36 -30 -34 -38 2 -3 17 -10 29 -15 26 -5 -4 -15 11 -21 31
-19 57 -29 61 -17 6 5 -26 10 -61 11 -78 1 -27 -2 -30 -31 -33 -29 -3 -33 0
-34 20 -1 21 -1 21 -11 -4 -18 -50 -34 -32 -51 60 -10 48 -17 97 -17 109 0 12
-4 25 -10 28 -5 3 -10 -2 -10 -12 0 -22 18 -147 26 -185 4 -21 2 -28 -9 -28
-11 0 -16 22 -21 98 -10 134 -26 154 -26 33 0 -101 -8 -114 -19 -31 -3 28 -10
51 -16 51 -5 0 -13 -32 -17 -71 -11 -120 -20 -92 -13 40 4 81 3 120 -3 111 -5
-7 -13 -65 -17 -127 -7 -117 -24 -156 -26 -61 l-1 52 -10 -47 c-10 -47 -27
-65 -29 -30 -1 16 -2 16 -6 0 -5 -19 -33 -25 -33 -8 0 6 11 72 26 148 14 75
27 168 29 206 4 65 15 106 15 56 0 -15 4 -20 9 -15 11 12 32 231 24 251 -3 8
0 14 6 14 7 0 11 -31 12 -87z m-1638 35 c15 1 27 -2 27 -8 0 -5 7 -10 15 -10
20 0 19 -6 -11 -57 -31 -54 -43 -50 -20 7 9 22 11 40 6 40 -14 0 -50 -38 -50
-53 0 -15 -67 -83 -75 -76 -3 3 9 27 26 53 34 54 30 76 -6 34 -13 -15 -25 -24
-28 -22 -3 3 -14 0 -26 -7 -11 -7 -23 -10 -27 -7 -9 9 45 57 79 69 45 18 31
29 -35 29 -49 0 -59 3 -50 12 7 7 30 11 52 9 24 -1 48 4 62 13 22 16 23 15 29
-6 4 -18 11 -22 32 -20z m1464 0 c-3 -7 -5 -2 -5 12 0 14 2 19 5 13 2 -7 2
-19 0 -25z m-1275 -30 c-10 -22 -11 -21 -11 12 -1 26 2 31 11 22 8 -8 8 -17 0
-34z m1298 -84 c-6 -60 -13 -122 -15 -137 -3 -15 -1 -26 4 -23 5 3 11 23 15
45 3 21 13 41 21 45 8 3 15 14 15 25 0 27 10 51 22 51 6 0 7 -26 3 -70 -4 -42
-3 -70 2 -70 6 0 -5 -73 -24 -162 -40 -195 -40 -195 -59 -202 -11 -4 -13 0 -8
22 7 26 7 27 -13 9 -20 -17 -20 -17 -15 8 2 14 8 28 13 31 5 3 9 12 9 21 0 23
-12 8 -32 -40 -9 -23 -17 -34 -17 -25 -1 10 7 37 16 60 12 29 13 43 5 46 -6 2
-8 10 -5 18 3 7 9 11 14 8 6 -3 7 4 4 18 -3 13 1 41 10 62 9 21 14 40 11 43
-6 7 -17 -17 -66 -144 -23 -62 -47 -110 -51 -107 -5 3 -2 18 6 34 9 17 20 42
26 56 8 24 8 25 -6 14 -21 -17 -20 0 4 75 70 213 100 316 106 358 13 86 16 42
5 -69z m100 -35 c-8 -19 -10 -14 -5 31 3 30 6 71 7 90 1 19 3 6 5 -31 2 -36
-1 -76 -7 -90z m-487 134 c4 -3 2 -12 -4 -19 -7 -9 -5 -14 10 -19 21 -6 29
-25 11 -25 -5 0 -10 -7 -10 -15 0 -8 7 -15 15 -15 10 0 15 -10 15 -27 0 -25
-1 -26 -19 -9 -19 17 -51 95 -51 123 0 14 22 18 33 6z m-287 -60 c-18 -33 -21
-26 -6 13 6 15 13 24 16 21 3 -3 -1 -18 -10 -34z m242 -21 c2 -13 -4 -21 -17
-25 -15 -4 -21 0 -21 11 -1 43 -17 41 -52 -6 -75 -97 -152 -252 -215 -432 -36
-104 -35 -73 4 59 29 104 86 223 153 321 28 41 58 87 68 102 l17 27 30 -19
c16 -10 31 -28 33 -38z m-201 12 c-3 -3 -12 -4 -19 -1 -8 3 -5 6 6 6 11 1 17
-2 13 -5z m-674 -17 c3 -8 -1 -14 -8 -14 -7 0 -11 6 -8 14 3 7 6 13 8 13 2 0
5 -6 8 -13z m871 -51 c-3 -9 -10 -13 -16 -10 -5 3 -4 12 3 20 15 18 22 13 13
-10z m-1297 -298 c48 -79 45 -100 -4 -27 -30 43 -124 251 -122 268 0 3 20 -34
43 -84 23 -49 61 -120 83 -157z m1614 136 c-38 -104 -99 -234 -108 -234 -28 1
-32 18 -10 47 12 17 49 85 82 151 32 67 61 120 62 118 2 -2 -9 -39 -26 -82z
m306 -276 c-2 -24 -4 -5 -4 42 0 47 2 66 4 43 2 -24 2 -62 0 -85z m-1134 -126
c21 -19 22 -32 2 -32 -8 0 -15 5 -15 10 0 6 -9 10 -21 10 -27 0 -61 19 -54 30
8 13 66 1 88 -18z m130 -2 l18 -30 -36 0 c-26 0 -42 7 -56 23 -26 32 -24 37
19 37 31 0 41 -5 55 -30z m101 14 c9 -22 -1 -34 -29 -34 -21 0 -35 17 -35 41
0 16 57 10 64 -7z m-452 -11 c26 -23 22 -33 -12 -33 -25 0 -30 4 -30 25 0 29
16 32 42 8z m98 -10 c19 -25 20 -28 5 -31 -18 -4 -41 12 -56 40 -16 30 26 23
51 -9z m-73 -105 c-51 -216 -123 -425 -159 -463 -14 -15 -11 -2 13 50 52 117
78 191 100 288 29 134 39 167 48 167 5 0 4 -19 -2 -42z m64 -45 c-7 -37 -14
-97 -17 -133 -13 -175 -21 -237 -32 -257 -6 -12 -16 -54 -22 -94 -11 -74 -15
-87 -26 -76 -4 3 1 38 11 77 10 39 15 74 12 77 -8 7 -33 -49 -48 -107 -7 -25
-14 -38 -16 -30 -2 8 6 42 17 74 11 33 20 66 20 75 -1 23 -26 -23 -46 -84 -17
-53 -30 -72 -40 -63 -3 4 10 40 30 82 20 41 36 88 35 103 0 21 -13 2 -51 -77
-28 -58 -52 -100 -55 -94 -2 6 21 62 52 124 42 86 63 146 89 254 19 77 39 159
44 181 6 25 10 31 11 18 1 -27 21 -31 21 -5 0 19 10 35 18 28 2 -3 -1 -35 -7
-73z m351 -60 c11 -40 25 -73 30 -73 5 0 6 -5 3 -10 -4 -6 2 -18 12 -28 10 -9
14 -14 9 -9 -16 12 -26 8 -20 -8 4 -8 13 -15 22 -15 12 0 13 -3 4 -12 -8 -8
-9 -15 -1 -25 7 -7 9 -13 5 -13 -9 0 82 -179 111 -218 13 -17 21 -37 17 -43
-8 -14 -30 18 -107 161 -34 63 -63 108 -65 99 -4 -20 31 -100 87 -198 23 -41
38 -77 34 -81 -4 -4 -27 -10 -49 -13 -40 -5 -42 -3 -52 27 l-10 31 -1 -36 c-1
-31 -5 -38 -27 -43 -15 -4 -28 -5 -31 -3 -2 3 -14 55 -27 116 -41 199 -49 137
-11 -91 2 -16 0 -28 -5 -28 -6 0 -10 10 -10 23 0 16 -3 18 -9 9 -5 -9 -11 4
-17 40 l-8 53 -6 -65 c-4 -49 -7 -59 -12 -40 -4 14 -8 44 -8 68 0 26 -4 41
-10 37 -6 -4 -10 11 -10 38 0 80 -12 167 -23 160 -6 -4 -7 -63 -3 -169 7 -161
7 -164 -14 -164 -11 0 -20 5 -20 11 0 6 -7 9 -15 5 -11 -4 -15 1 -15 18 0 14
5 26 12 28 8 3 7 11 -5 28 -9 14 -17 36 -18 50 -1 40 -8 11 -18 -70 l-8 -75
-3 80 -3 80 -11 -70 -11 -70 -46 -3 -46 -3 13 78 c6 43 17 105 23 138 5 33 12
89 14 125 3 36 7 72 10 80 3 8 8 43 10 78 3 35 8 66 10 69 14 13 27 -12 26
-50 0 -37 -1 -39 -10 -18 -13 33 -17 24 -11 -27 4 -43 4 -43 17 -18 8 14 15
38 17 53 2 16 8 -10 13 -57 l10 -85 5 80 6 80 2 -77 c3 -114 22 -98 23 20 1
125 16 180 19 67 2 -110 18 -144 21 -45 1 63 3 69 9 35 6 -37 11 -36 23 5 2 8
7 -14 10 -50 4 -35 12 -69 18 -75 9 -7 10 5 6 45 -7 72 9 35 18 -42 5 -39 12
-58 21 -58 18 0 17 9 -1 95 -8 39 -14 81 -14 95 1 14 7 -3 15 -38 16 -73 39
-120 29 -60 -7 46 15 57 32 16 25 -59 29 -24 6 60 -12 48 -23 98 -22 112 1 21
2 19 10 -10 6 -19 19 -68 31 -107z m-255 95 c-3 -8 -6 -5 -6 6 -1 11 2 17 5
13 3 -3 4 -12 1 -19z m70 -15 c-3 -10 -5 -4 -5 12 0 17 2 24 5 18 2 -7 2 -21
0 -30z m80 -10 c-3 -10 -5 -2 -5 17 0 19 2 27 5 18 2 -10 2 -26 0 -35z m-505
-485 c-8 -18 -17 -27 -20 -20 -2 7 4 22 14 33 24 26 25 24 6 -13z"/>
<path d="M1580 4636 c-357 -49 -689 -139 -943 -255 l-57 -26 36 -60 c46 -76
320 -553 404 -703 75 -135 91 -152 142 -152 77 0 188 80 188 135 0 13 -66 133
-146 267 -147 245 -194 329 -194 348 0 52 196 -94 359 -268 68 -73 131 -132
140 -132 10 0 57 14 107 31 143 49 376 105 549 133 215 35 605 48 840 28 399
-33 766 -142 1174 -349 123 -62 226 -113 229 -113 17 0 -14 81 -52 134 -54 76
-258 274 -381 368 -285 221 -730 424 -1155 526 -318 77 -491 99 -860 107 -178
4 -228 2 -380 -19z m415 -254 c-3 -3 -11 0 -18 7 -9 10 -8 11 6 5 10 -3 15 -9
12 -12z m-312 -9 c-7 -2 -21 -2 -30 0 -10 3 -4 5 12 5 17 0 24 -2 18 -5z
m-208 -33 c-3 -5 -12 -10 -18 -10 -7 0 -6 4 3 10 19 12 23 12 15 0z m-88 -16
c-3 -3 -12 -4 -19 -1 -8 3 -5 6 6 6 11 1 17 -2 13 -5z m123 -304 c0 -5 -10
-10 -22 -9 -22 0 -22 1 -3 9 11 5 21 9 23 9 1 1 2 -3 2 -9z m-200 -451 c0 -6
-4 -7 -10 -4 -5 3 -10 11 -10 16 0 6 5 7 10 4 6 -3 10 -11 10 -16z m-190 7 c0
-2 -8 -10 -17 -17 -16 -13 -17 -12 -4 4 13 16 21 21 21 13z m180 -40 c0 -2 -8
-10 -17 -17 -16 -13 -17 -12 -4 4 13 16 21 21 21 13z"/>
<path d="M3745 2760 c7 -31 6 -33 -9 -21 -9 7 -16 20 -16 28 0 27 -35 9 -38
-20 -4 -35 -15 -35 -29 1 -11 27 -11 27 -12 -10 -1 -21 -5 -38 -11 -38 -5 0
-10 -4 -10 -10 0 -15 43 -12 67 5 18 13 26 13 43 3 16 -10 24 -10 40 0 11 6
31 12 45 12 17 0 25 5 25 18 0 20 -35 62 -50 62 -15 0 -12 -16 5 -30 8 -7 15
-17 15 -23 0 -6 -16 5 -36 24 l-36 34 7 -35z"/>
<path d="M3600 2724 c0 -8 5 -12 10 -9 6 4 8 11 5 16 -9 14 -15 11 -15 -7z"/>
<path d="M3700 2670 c0 -5 5 -10 10 -10 6 0 10 5 10 10 0 6 -4 10 -10 10 -5 0
-10 -4 -10 -10z"/>
<path d="M3625 2649 c-4 -5 -1 -68 6 -139 10 -107 15 -128 26 -119 14 12 19
190 7 236 -7 24 -30 37 -39 22z"/>
<path d="M3703 2060 c0 -41 2 -58 4 -37 2 20 2 54 0 75 -2 20 -4 3 -4 -38z"/>
<path d="M1384 2753 l6 -28 -16 23 c-21 29 -34 28 -34 -3 0 -27 -23 -34 -37
-12 -17 26 -73 47 -73 27 0 -5 9 -10 20 -10 13 0 20 -7 20 -19 0 -10 7 -24 15
-31 8 -7 15 -21 15 -31 0 -11 7 -19 16 -19 10 0 14 6 11 14 -3 8 2 21 11 29
15 13 20 14 42 2 14 -8 34 -14 45 -14 19 0 19 0 3 13 -12 8 -18 27 -18 50 0
26 -4 36 -16 36 -12 0 -15 -6 -10 -27z"/>
<path d="M1587 2773 c-4 -6 0 -19 8 -29 11 -15 14 -16 15 -4 0 21 -16 44 -23
33z"/>
<path d="M1544 2731 c21 -39 7 -48 -20 -14 -31 38 -41 22 -14 -21 25 -42 70
-51 70 -15 0 16 4 19 20 14 14 -5 20 -2 20 9 0 9 -8 16 -18 16 -11 0 -27 9
-37 20 -26 29 -38 24 -21 -9z"/>
<path d="M1180 2730 c0 -5 7 -10 15 -10 8 0 15 5 15 10 0 6 -7 10 -15 10 -8 0
-15 -4 -15 -10z"/>
<path d="M1685 2710 c3 -5 10 -10 16 -10 5 0 9 5 9 10 0 6 -7 10 -16 10 -8 0
-12 -4 -9 -10z"/>
<path d="M970 2695 c0 -8 7 -15 15 -15 8 0 15 4 15 9 0 5 -7 11 -15 15 -9 3
-15 0 -15 -9z"/>
<path d="M1224 2669 c-4 -6 -20 -8 -40 -4 -35 6 -49 -10 -19 -21 10 -4 13 -14
9 -30 -5 -17 -2 -24 9 -24 12 0 17 -16 22 -67 7 -73 23 -135 24 -98 2 42 21
-9 22 -60 1 -49 1 -49 10 -15 5 19 6 69 2 110 -6 75 1 95 10 31 3 -18 11 -39
18 -45 9 -8 10 1 5 42 -4 33 -3 51 3 48 5 -3 13 -34 17 -68 l9 -63 6 55 6 55
3 -75 c5 -136 18 -143 19 -10 1 70 6 132 12 140 8 11 9 -11 4 -78 -5 -75 -3
-93 7 -90 7 3 15 22 17 44 4 39 4 38 16 -21 l12 -60 2 98 c1 102 13 127 26 55
l7 -43 13 50 c11 44 13 46 14 18 1 -29 16 -51 27 -40 3 2 7 22 10 43 4 29 3
35 -5 24 -9 -12 -11 -10 -11 10 0 20 -2 22 -11 10 -8 -11 -9 -6 -5 23 6 44
-10 50 -19 7 -4 -16 -11 -30 -16 -30 -5 0 -9 14 -9 30 0 17 -4 30 -10 30 -5 0
-10 -3 -10 -7 0 -5 -4 -14 -9 -22 -8 -12 -12 -12 -25 -2 -17 14 -36 7 -36 -13
0 -7 -10 -21 -22 -32 l-21 -19 6 38 c7 42 -4 48 -23 13 -12 -24 -38 -41 -47
-32 -3 2 3 18 12 36 20 38 15 46 -17 29 -22 -12 -23 -11 -5 8 9 11 14 23 10
26 -9 10 -21 8 -29 -4z m283 -141 c-3 -8 -6 -5 -6 6 -1 11 2 17 5 13 3 -3 4
-12 1 -19z"/>
<path d="M1123 2623 c3 -10 13 -51 22 -90 11 -48 22 -73 31 -73 8 0 14 4 14 9
0 26 -52 171 -61 171 -6 0 -8 -8 -6 -17z"/>
<path d="M785 2571 c-6 -11 9 -23 19 -14 9 9 7 23 -3 23 -6 0 -12 -4 -16 -9z"/>
<path d="M3270 2601 c0 -6 5 -13 10 -16 6 -3 10 1 10 9 0 9 -4 16 -10 16 -5 0
-10 -4 -10 -9z"/>
<path d="M4000 2658 c0 -17 2 -18 15 -8 8 7 15 14 15 15 0 2 -7 5 -15 9 -10 4
-15 -1 -15 -16z"/>
<path d="M4040 2655 c0 -8 5 -15 10 -15 6 0 10 7 10 15 0 8 -4 15 -10 15 -5 0
-10 -7 -10 -15z"/>
<path d="M1960 2650 c0 -5 7 -10 16 -10 8 0 12 5 9 10 -3 6 -10 10 -16 10 -5
0 -9 -4 -9 -10z"/>
<path d="M1600 2250 c-6 -12 -9 -24 -7 -27 3 -2 11 5 17 17 6 12 9 24 7 27 -3
2 -11 -5 -17 -17z"/>
<path d="M2412 1938 c-15 -15 -16 -64 -2 -73 6 -4 10 8 10 27 0 19 5 39 12 46
7 7 8 12 2 12 -5 0 -15 -5 -22 -12z"/>
<path d="M2223 1933 c-7 -3 -13 -12 -13 -21 0 -15 2 -15 17 1 18 18 16 27 -4
20z"/>
<path d="M2300 1931 c0 -6 5 -13 10 -16 6 -3 10 1 10 9 0 9 -4 16 -10 16 -5 0
-10 -4 -10 -9z"/>
<path d="M2510 1922 c0 -11 -10 -27 -21 -38 l-22 -19 5 33 c5 38 -4 41 -25 8
-15 -22 -14 -25 7 -45 22 -21 23 -21 40 -2 15 17 21 18 38 8 16 -10 22 -9 34
7 16 23 18 52 4 61 -6 3 -10 -4 -11 -17 l0 -23 -16 23 c-19 27 -33 29 -33 4z"/>
<path d="M2650 1930 c0 -5 5 -10 10 -10 6 0 10 5 10 10 0 6 -4 10 -10 10 -5 0
-10 -4 -10 -10z"/>
<path d="M2342 1891 c4 -13 18 -16 19 -4 0 4 -5 9 -11 12 -7 2 -11 -2 -8 -8z"/>
<path d="M2870 1880 c0 -5 5 -10 10 -10 6 0 10 5 10 10 0 6 -4 10 -10 10 -5 0
-10 -4 -10 -10z"/>
<path d="M2090 1845 c0 -8 5 -15 10 -15 6 0 10 7 10 15 0 8 -4 15 -10 15 -5 0
-10 -7 -10 -15z"/>
<path d="M2545 1831 c-6 -11 9 -23 19 -14 9 9 7 23 -3 23 -6 0 -12 -4 -16 -9z"/>
<path d="M2450 1823 c0 -4 4 -15 9 -22 7 -11 1 -25 -20 -49 -32 -36 -32 -57
-1 -29 18 16 19 16 30 -8 7 -14 12 -44 12 -65 0 -45 17 -54 23 -12 3 19 4 14
6 -15 2 -67 21 -50 23 20 l1 62 6 -72 c3 -39 9 -74 12 -77 3 -4 9 42 13 100 4
70 3 111 -4 118 -7 7 -10 1 -11 -19 -2 -29 -2 -29 -9 5 l-7 35 -12 -32 c-16
-41 -31 -42 -31 -3 0 17 -4 30 -9 30 -5 0 -8 7 -7 16 0 9 -5 19 -11 21 -7 3
-13 1 -13 -4z"/>
<path d="M2447 1673 c-10 -9 -9 -23 2 -23 5 0 11 7 15 15 5 15 -5 20 -17 8z"/>
<path d="M2420 1626 c0 -14 5 -26 10 -26 6 0 10 9 10 19 0 11 -4 23 -10 26 -6
4 -10 -5 -10 -19z"/>
<path d="M2477 1583 c-11 -10 -8 -43 3 -43 6 0 10 11 10 25 0 26 -2 29 -13 18z"/>
<path d="M2716 1574 c-9 -22 3 -32 14 -14 12 19 12 30 1 30 -5 0 -12 -7 -15
-16z"/>
<path d="M2512 1525 c0 -16 2 -22 5 -12 2 9 2 23 0 30 -3 6 -5 -1 -5 -18z"/>
<path d="M2250 1413 c0 -13 5 -23 10 -23 13 0 13 11 0 30 -8 12 -10 11 -10 -7z"/>
<path d="M2562 1370 c0 -14 2 -19 5 -12 2 6 2 18 0 25 -3 6 -5 1 -5 -13z"/>
<path d="M2721 1364 c0 -11 3 -14 6 -6 3 7 2 16 -1 19 -3 4 -6 -2 -5 -13z"/>
<path d="M2290 1291 c0 -25 6 -27 13 -6 4 8 2 17 -3 20 -6 4 -10 -3 -10 -14z"/>
<path d="M2360 1293 c0 -5 5 -15 10 -23 8 -12 10 -11 10 8 0 12 -4 22 -10 22
-5 0 -10 -3 -10 -7z"/>
<path d="M2661 1264 c0 -11 3 -14 6 -6 3 7 2 16 -1 19 -3 4 -6 -2 -5 -13z"/>
<path d="M2402 1210 c0 -19 2 -27 5 -17 2 9 2 25 0 35 -3 9 -5 1 -5 -18z"/>
<path d="M2652 1210 c0 -14 2 -19 5 -12 2 6 2 18 0 25 -3 6 -5 1 -5 -13z"/>
<path d="M1323 1540 c0 -25 2 -35 4 -22 2 12 2 32 0 45 -2 12 -4 2 -4 -23z"/>
<path d="M1532 1470 c0 -14 2 -19 5 -12 2 6 2 18 0 25 -3 6 -5 1 -5 -13z"/>
<path d="M1095 1459 c-4 -6 -5 -12 -2 -15 2 -3 7 2 10 11 7 17 1 20 -8 4z"/>
<path d="M1200 1345 c0 -8 2 -15 4 -15 2 0 6 7 10 15 3 8 1 15 -4 15 -6 0 -10
-7 -10 -15z"/>
<path d="M1041 1294 c0 -11 3 -14 6 -6 3 7 2 16 -1 19 -3 4 -6 -2 -5 -13z"/>
<path d="M1016 1233 c-6 -14 -5 -15 5 -6 7 7 10 15 7 18 -3 3 -9 -2 -12 -12z"/>
<path d="M1201 1210 c-6 -25 -14 -51 -16 -57 -2 -7 0 -13 5 -13 12 0 32 65 28
92 -3 18 -7 12 -17 -22z"/>
<path d="M1601 1243 c0 -4 4 -17 9 -28 8 -19 9 -19 9 2 1 12 -3 25 -9 28 -5 3
-10 3 -9 -2z"/>
<path d="M1635 1240 c3 -5 8 -10 11 -10 2 0 4 5 4 10 0 6 -5 10 -11 10 -5 0
-7 -4 -4 -10z"/>
<path d="M1682 1228 c2 -6 10 -14 16 -16 7 -2 10 2 6 12 -7 18 -28 22 -22 4z"/>
<path d="M3815 1610 c-4 -6 -3 -41 1 -78 7 -56 9 -62 15 -37 16 71 5 149 -16
115z"/>
<path d="M3870 1330 c0 -19 3 -21 12 -12 9 9 9 15 0 24 -9 9 -12 7 -12 -12z"/>
<path d="M3596 1262 c-2 -4 -1 -14 5 -22 7 -12 9 -10 9 8 0 23 -5 28 -14 14z"/>
<path d="M3562 1195 c0 -16 2 -22 5 -12 2 9 2 23 0 30 -3 6 -5 -1 -5 -18z"/>
<path d="M3803 1175 c0 -22 2 -30 4 -17 2 12 2 30 0 40 -3 9 -5 -1 -4 -23z"/>
<path d="M2382 878 c-14 -14 -16 -78 -3 -78 7 0 24 81 17 87 -1 2 -8 -3 -14
-9z"/>
<path d="M2331 626 c-6 -25 -11 -55 -10 -68 1 -21 2 -20 14 7 18 42 28 105 17
105 -5 0 -15 -20 -21 -44z"/>
<path d="M2758 685 c2 -14 8 -25 13 -25 10 0 11 12 3 34 -10 25 -22 19 -16 -9z"/>
<path d="M2750 565 c0 -21 29 -89 35 -83 5 5 -24 98 -31 98 -2 0 -4 -7 -4 -15z"/>
</g>
</svg>
